# xmcd
#
# Track frame offsets:
#	150
#	21448
#	38394
#	56427
#	76850
#	92148
#	111450
#	131871
#	147907
#	166398
#	185086
#	199966
#	215453
#	241681
#
# Disc length: 3516 seconds
#
# Revision: 1
# Processed by: cddbd v1.5.2PL0 Copyright (c) Steve Scherf et al.
# Submitted via: audiograbber 1.83.01
#
DISCID=c50dba0e
DTITLE=Element of Crime - 1991 - 1996
DYEAR=2002
DGENRE=Jazz/Blues
TTITLE0=Damals hinterm Mond
TTITLE1=Blaulicht und Zwielicht
TTITLE2=Wahr und gut und schön
TTITLE3=Vier Stunden vor Elbe 1
TTITLE4=Weisses Papier
TTITLE5=Draussen hinterm Fenster
TTITLE6=Du hast die Wahl
TTITLE7=Mein dein Tag
TTITLE8=Ein Mann
TTITLE9=Ich kann warten
TTITLE10=Die schönen Rosen
TTITLE11=Ohne dich
TTITLE12=Nichts mehr wie es war
TTITLE13=Wenn der Morgen graut (Video)
EXTD=
EXTT0=
EXTT1=
EXTT2=
EXTT3=
EXTT4=
EXTT5=
EXTT6=
EXTT7=
EXTT8=
EXTT9=
EXTT10=
EXTT11=
EXTT12=
EXTT13=
PLAYORDER=
